# xmcd
#
# Track frame offsets: 
#        150
#        11656
#        19325
#        28407
#        39432
#        54531
#        63061
#        72682
#        82027
#        92351
#        101121
#        116303
#
# Disc length: 1781 seconds
#
# Revision: 0
# Processed by: cddbd v1.5.2PL0 Copyright (c) Steve Scherf et al.
# Submitted via: ExactAudioCopy v0.95b4
#
DISCID=9c06f30c
DTITLE=Ronnie McDowell - The Number Ones That Got Away Vol. 3
DYEAR=1900
DGENRE=Country
TTITLE0=Because of love
TTITLE1=I feel that I've known you forever
TTITLE2=Wooden heart
TTITLE3=How's the world treating you
TTITLE4=It's midnight
TTITLE5=You can't say no in Acapulco
TTITLE6=Young and beautiful
TTITLE7=Starting today
TTITLE8=All that I am
TTITLE9=Baby I don't care
TTITLE10=One tear
TTITLE11=Be bop a lula
EXTD=
EXTT0=
EXTT1=
EXTT2=
EXTT3=
EXTT4=
EXTT5=
EXTT6=
EXTT7=
EXTT8=
EXTT9=
EXTT10=
EXTT11=
PLAYORDER=
